# xmcd
#
# Track frame offsets:
#	150
#	22982
#	41979
#	69414
#	92795
#	116059
#	140505
#	161302
#	187928
#	240322
#	287284
#
# Disc length: 4407 seconds
#
# Revision: 0
# Processed by: cddbd v1.5.1PL2 Copyright (c) Steve Scherf et al.
# Submitted via: dBpowerAMP V4.0
#
DISCID=8a11350b
DTITLE=Pete Dunn - Relax Chill Lounge
DYEAR=1900
DGENRE=
TTITLE0=Relaxing Blue Suite
TTITLE1=Field of Activating Red
TTITLE2=Mystic Yellow Sun
TTITLE3=Green Nature and Atmosphere
TTITLE4=Creative Orange
TTITLE5=Blue and Green Ambience
TTITLE6=Green Trees
TTITLE7=The Black Hole
TTITLE8=Call of the Wind
TTITLE9=Voices of the Rainbow
TTITLE10=Merry go Round of Love
EXTD=Chill Lounge Relax 01
EXTT0=
EXTT1=
EXTT2=
EXTT3=
EXTT4=
EXTT5=
EXTT6=
EXTT7=
EXTT8=
EXTT9=
EXTT10=
PLAYORDER=
